<?xml version="1.0" encoding="UTF-8" ?>
<!DOCTYPE svg PUBLIC "-//W3C//DTD SVG 1.1//EN" "http://www.w3.org/Graphics/SVG/1.1/DTD/svg11.dtd">
<svg width="197pt" height="207pt" viewBox="0 0 197 207" version="1.1" xmlns="http://www.w3.org/2000/svg">
<path fill="#ffffff" d=" M 94.86 9.17 C 96.53 6.11 98.21 3.06 99.89 0.02 C 101.57 3.07 103.24 6.13 104.94 9.18 C 108.34 9.83 111.74 10.49 115.15 11.14 C 112.76 13.70 110.38 16.25 108.02 18.83 C 108.46 22.27 108.89 25.71 109.31 29.16 C 106.16 27.69 103.03 26.21 99.90 24.73 C 96.75 26.21 93.61 27.69 90.46 29.16 C 90.89 25.71 91.32 22.25 91.75 18.80 C 89.38 16.23 87.00 13.68 84.61 11.15 C 88.03 10.49 91.45 9.83 94.86 9.17 Z" />
<path fill="#ffffff" d=" M 138.96 21.61 C 139.81 20.09 140.66 18.56 141.51 17.04 C 142.36 18.57 143.21 20.10 144.07 21.63 C 145.75 21.94 147.43 22.26 149.11 22.57 C 147.92 23.88 146.73 25.19 145.55 26.51 C 145.78 28.21 146.01 29.92 146.23 31.62 C 144.70 30.89 143.17 30.15 141.65 29.40 C 140.04 30.11 138.43 30.83 136.83 31.56 C 137.02 29.79 137.21 28.03 137.39 26.27 C 136.20 25.06 135.03 23.83 133.85 22.61 C 135.55 22.27 137.26 21.94 138.96 21.61 Z" />
<path fill="#ffffff" d=" M 55.73 21.61 C 56.58 20.08 57.43 18.55 58.28 17.03 C 59.10 18.54 59.92 20.05 60.74 21.56 C 62.46 21.92 64.18 22.26 65.91 22.61 C 64.74 23.83 63.56 25.05 62.38 26.27 C 62.56 28.05 62.76 29.82 62.95 31.60 C 61.39 30.86 59.83 30.12 58.26 29.39 C 56.69 30.13 55.11 30.87 53.53 31.60 C 53.76 29.92 54.00 28.24 54.24 26.56 C 53.06 25.23 51.86 23.90 50.67 22.58 C 52.36 22.26 54.04 21.93 55.73 21.61 Z" />
<path fill="#ffffff" d=" M 3.94 40.11 C 5.16 40.23 6.38 40.35 7.60 40.46 L 7.48 41.22 C 10.50 42.71 13.51 45.37 17.12 44.36 C 19.30 43.45 21.30 42.17 23.39 41.08 L 23.45 40.25 C 24.83 40.28 26.21 40.31 27.59 40.34 L 27.61 41.15 C 29.85 42.04 32.00 43.14 34.02 44.46 C 39.50 45.79 42.81 39.61 48.13 40.21 C 51.34 42.56 54.81 45.19 59.05 44.51 C 60.84 43.37 62.68 42.29 64.53 41.25 L 64.50 40.37 C 66.37 40.44 68.55 39.89 70.04 41.38 C 70.28 41.46 70.77 41.63 71.01 41.71 C 73.49 43.11 76.03 45.15 79.08 44.44 C 81.33 43.62 83.35 42.32 85.46 41.21 L 85.42 40.32 C 89.65 39.28 92.65 42.42 96.11 44.13 C 100.14 45.73 103.90 42.70 106.88 40.33 C 112.19 39.49 115.79 45.79 121.16 44.34 C 124.91 42.71 128.08 39.17 132.56 40.39 L 132.48 41.27 C 135.48 42.82 138.52 45.41 142.14 44.34 C 144.63 43.32 146.83 41.74 148.97 40.14 C 150.34 40.31 151.68 40.61 153.00 41.04 C 155.06 42.65 157.18 44.97 160.06 44.52 C 163.03 44.20 165.43 42.10 167.78 40.43 C 169.25 40.39 170.71 40.38 172.18 40.42 C 174.97 42.62 178.21 45.26 182.03 44.43 C 185.86 43.15 188.78 39.08 193.23 40.50 C 193.48 41.24 193.97 42.71 194.21 43.45 C 192.79 43.14 191.35 42.89 189.91 42.71 C 186.56 43.94 183.77 46.99 179.95 46.64 C 177.30 46.61 175.08 45.00 173.01 43.53 C 167.81 40.65 164.17 47.18 159.07 46.62 C 155.52 46.61 153.25 43.15 149.91 42.64 C 146.53 43.75 143.83 46.78 140.08 46.65 C 138.21 46.75 136.61 45.72 135.02 44.91 C 133.45 44.04 131.86 43.15 130.10 42.73 C 127.87 42.63 125.94 43.95 124.04 44.92 C 122.48 45.74 120.89 46.83 119.03 46.63 C 114.99 46.48 111.98 42.77 107.97 42.73 C 104.65 44.02 101.85 47.01 98.03 46.64 C 93.94 46.65 91.14 42.15 86.97 42.85 C 83.34 44.15 80.20 47.57 76.02 46.47 C 72.92 45.35 70.15 43.47 67.01 42.40 C 63.97 43.72 61.26 45.90 57.98 46.59 C 53.84 47.28 50.85 43.72 47.10 42.75 C 43.28 42.56 40.65 46.31 36.91 46.60 C 32.46 47.08 29.18 43.07 24.94 42.64 C 21.61 43.88 18.83 46.85 15.06 46.65 C 11.09 46.67 8.40 42.87 4.38 42.92 C 4.23 41.98 4.09 41.05 3.94 40.11 Z" />
<path fill="#f8ca00" d=" M 16.71 61.21 C 19.34 61.18 21.98 61.16 24.61 61.15 C 24.19 62.36 23.77 63.57 23.36 64.78 C 19.08 77.49 14.83 90.20 10.65 102.94 C 10.10 102.95 9.00 102.96 8.45 102.97 C 6.59 102.99 4.73 102.99 2.86 102.99 C 7.43 89.05 12.21 75.18 16.71 61.21 Z" />
<path fill="#535e0d" d=" M 23.36 64.78 C 25.18 64.76 26.99 64.74 28.81 64.73 C 28.64 65.25 28.30 66.30 28.13 66.82 C 27.74 68.01 27.35 69.20 26.96 70.39 C 23.04 82.44 18.95 94.44 14.98 106.48 C 12.45 106.49 9.92 106.50 7.39 106.50 C 7.65 105.62 8.18 103.85 8.45 102.97 C 9.00 102.96 10.10 102.95 10.65 102.94 C 14.83 90.20 19.08 77.49 23.36 64.78 Z" />
<path fill="#f8ca00" d=" M 31.99 64.99 C 33.28 65.00 34.56 65.01 35.85 65.01 C 35.84 65.89 35.83 67.65 35.82 68.52 C 36.91 67.93 38.00 67.35 39.08 66.76 C 39.73 67.90 40.37 69.04 41.02 70.18 L 39.67 70.94 C 39.21 71.20 38.30 71.71 37.85 71.97 C 38.62 72.48 40.15 73.50 40.92 74.00 C 40.31 75.06 39.69 76.12 39.08 77.18 C 37.93 76.62 36.78 76.06 35.64 75.50 C 35.73 76.40 35.91 78.19 36.00 79.09 L 34.62 78.98 C 34.02 78.99 32.84 79.02 32.24 79.03 C 32.17 78.19 32.01 76.50 31.93 75.66 C 30.93 76.14 29.91 76.59 28.88 77.01 C 27.97 76.12 27.22 75.09 26.45 74.09 C 27.56 73.39 28.67 72.70 29.79 72.00 C 29.08 71.60 27.67 70.79 26.96 70.39 C 27.35 69.20 27.74 68.01 28.13 66.82 C 29.43 67.37 30.73 67.94 32.02 68.51 C 32.02 67.63 32.00 65.87 31.99 64.99 Z" />
<path fill="#f8ca00" d=" M 53.60 65.00 C 58.41 65.00 63.22 65.00 68.03 65.00 C 68.02 66.12 68.01 67.23 67.99 68.35 C 67.96 69.70 67.94 71.05 67.91 72.40 C 67.07 72.38 65.40 72.34 64.56 72.31 C 64.47 78.20 64.80 84.10 64.47 89.98 C 64.29 93.65 62.08 97.15 58.76 98.77 C 56.21 100.09 53.25 99.79 50.49 99.66 C 48.15 98.44 45.97 96.73 44.60 94.44 C 43.10 91.74 43.38 88.57 43.29 85.61 C 45.79 85.60 48.28 85.60 50.77 85.60 C 50.75 86.54 50.71 88.44 50.69 89.39 C 51.16 91.54 53.02 92.55 55.06 92.76 C 56.09 91.77 57.23 90.60 57.12 89.04 C 57.31 83.51 57.08 77.96 57.17 72.42 C 55.99 72.41 54.80 72.39 53.61 72.37 C 53.60 69.91 53.60 67.46 53.60 65.00 Z" />
<path fill="#f8ca00" d=" M 72.55 69.11 C 76.43 63.88 83.43 64.92 89.11 65.06 C 92.35 65.05 95.16 67.05 97.20 69.41 C 99.74 75.64 98.68 82.55 98.74 89.10 C 98.84 93.82 95.57 98.51 90.86 99.49 C 86.42 100.18 81.89 99.87 77.44 99.46 C 73.90 97.78 70.96 94.45 70.71 90.40 C 70.42 85.29 70.65 80.16 70.54 75.05 C 71.00 73.01 71.68 71.02 72.55 69.11 Z" />
<path fill="#f8ca00" d=" M 101.36 65.00 C 109.54 65.11 117.73 64.78 125.90 65.15 C 125.80 65.90 125.58 67.41 125.47 68.17 C 126.54 68.16 127.62 68.17 128.70 68.19 C 128.68 67.43 128.63 65.92 128.60 65.17 C 133.34 64.78 138.10 65.07 142.85 65.01 C 142.84 65.86 142.83 67.56 142.82 68.41 C 142.80 69.69 142.79 70.97 142.78 72.26 C 141.62 72.29 140.46 72.32 139.30 72.35 C 139.32 79.14 139.31 85.93 139.31 92.72 C 140.79 92.69 142.27 92.66 143.76 92.64 C 144.31 92.63 145.42 92.61 145.98 92.60 C 145.99 91.45 146.01 90.30 146.03 89.15 C 148.49 89.16 150.95 89.17 153.42 89.18 C 153.40 90.36 153.38 91.55 153.36 92.74 C 153.33 95.09 153.31 97.44 153.29 99.80 C 146.53 99.80 139.77 99.77 133.01 99.85 C 132.20 99.82 130.58 99.74 129.77 99.70 C 129.50 99.66 128.96 99.56 128.70 99.51 C 128.67 97.22 128.63 94.94 128.59 92.66 C 129.78 92.61 130.97 92.57 132.17 92.54 C 132.16 85.90 132.16 79.26 132.18 72.62 C 131.66 72.54 130.63 72.37 130.11 72.29 L 128.68 72.03 C 128.71 71.25 128.76 69.69 128.79 68.90 C 127.66 68.91 126.53 68.91 125.40 68.91 C 125.61 71.11 125.77 73.31 125.93 75.52 C 125.15 75.54 123.61 75.58 122.83 75.60 C 121.46 75.64 120.10 75.70 118.73 75.77 C 118.71 74.62 118.68 73.46 118.66 72.31 C 116.44 72.31 114.22 72.31 112.00 72.31 C 112.01 74.45 112.01 76.58 112.02 78.72 C 113.36 78.69 114.70 78.66 116.04 78.63 C 116.78 78.61 118.26 78.59 119.00 78.57 C 119.00 79.48 119.00 81.31 119.00 82.22 C 119.00 83.48 119.00 84.74 119.00 85.99 C 116.67 86.00 114.33 86.00 111.99 86.01 C 112.00 88.24 112.01 90.48 112.02 92.72 C 113.47 92.69 114.92 92.67 116.38 92.64 C 116.94 92.63 118.07 92.61 118.63 92.60 C 118.61 91.52 118.59 90.44 118.58 89.36 C 120.14 89.28 121.70 89.23 123.26 89.18 C 123.90 89.16 125.19 89.13 125.83 89.11 C 125.83 90.33 125.82 91.54 125.82 92.76 C 125.80 95.10 125.79 97.45 125.79 99.79 C 119.11 99.81 112.44 99.76 105.76 99.82 C 104.33 99.84 102.91 99.86 101.48 99.88 L 101.47 99.20 C 101.43 97.20 101.40 95.21 101.37 93.22 C 101.71 93.13 102.40 92.94 102.75 92.84 C 103.31 92.71 104.43 92.44 104.99 92.30 C 105.01 85.67 105.00 79.04 105.00 72.40 C 104.09 72.40 102.27 72.39 101.37 72.39 C 101.36 69.93 101.36 67.46 101.36 65.00 Z" />
<path fill="#535e0d" d=" M 142.82 68.41 C 144.31 68.48 145.81 68.55 147.31 68.62 C 147.27 70.98 147.24 73.35 147.21 75.72 C 146.34 75.74 144.62 75.78 143.76 75.80 C 143.74 81.41 143.74 87.03 143.76 92.64 C 142.27 92.66 140.79 92.69 139.31 92.72 C 139.31 85.93 139.32 79.14 139.30 72.35 C 140.46 72.32 141.62 72.29 142.78 72.26 C 142.79 70.97 142.80 69.69 142.82 68.41 Z" />
<path fill="#535e0d" d=" M 67.99 68.35 C 69.51 68.59 71.03 68.84 72.55 69.11 C 71.68 71.02 71.00 73.01 70.54 75.05 C 70.13 75.53 69.32 76.48 68.92 76.96 C 68.16 83.36 69.52 89.90 68.29 96.25 C 66.11 103.66 55.24 105.81 50.49 99.66 C 53.25 99.79 56.21 100.09 58.76 98.77 C 62.08 97.15 64.29 93.65 64.47 89.98 C 64.80 84.10 64.47 78.20 64.56 72.31 C 65.40 72.34 67.07 72.38 67.91 72.40 C 67.94 71.05 67.96 69.70 67.99 68.35 Z" />
<path fill="#535e0d" d=" M 125.40 68.91 C 126.53 68.91 127.66 68.91 128.79 68.90 C 128.76 69.69 128.71 71.25 128.68 72.03 L 130.11 72.29 C 130.26 74.52 130.28 76.75 130.32 78.98 C 127.91 78.99 125.50 79.00 123.10 79.01 C 123.03 78.16 122.90 76.46 122.83 75.60 C 123.61 75.58 125.15 75.54 125.93 75.52 C 125.77 73.31 125.61 71.11 125.40 68.91 Z" />
<path fill="#535e0d" d=" M 97.20 69.41 C 100.15 71.31 102.84 74.19 102.90 77.90 C 103.08 82.87 103.24 87.89 102.75 92.84 C 102.40 92.94 101.71 93.13 101.37 93.22 C 101.40 95.21 101.43 97.20 101.47 99.20 C 96.65 104.14 89.35 103.72 83.06 102.93 C 80.78 102.59 79.08 100.93 77.44 99.46 C 81.89 99.87 86.42 100.18 90.86 99.49 C 95.57 98.51 98.84 93.82 98.74 89.10 C 98.68 82.55 99.74 75.64 97.20 69.41 Z" />
<path fill="#535e0d" d=" M 37.85 71.97 C 38.30 71.71 39.21 71.20 39.67 70.94 L 40.39 72.05 C 41.37 71.48 42.35 70.91 43.33 70.34 C 43.96 71.43 44.59 72.53 45.22 73.62 C 44.45 74.06 42.93 74.95 42.17 75.39 C 43.18 76.09 44.19 76.79 45.20 77.49 C 44.57 78.54 43.93 79.59 43.30 80.64 C 42.20 80.02 41.10 79.39 40.00 78.77 C 40.00 79.68 40.00 81.52 39.99 82.44 C 39.09 82.48 37.30 82.58 36.40 82.63 C 36.26 81.45 36.13 80.27 36.00 79.09 C 35.91 78.19 35.73 76.40 35.64 75.50 C 36.78 76.06 37.93 76.62 39.08 77.18 C 39.69 76.12 40.31 75.06 40.92 74.00 C 40.15 73.50 38.62 72.48 37.85 71.97 Z" />
<path fill="#535e0d" d=" M 78.13 74.99 C 78.22 72.57 81.01 72.17 82.91 72.26 C 86.07 72.30 90.75 71.32 91.58 75.52 C 88.78 76.05 85.12 74.91 82.92 77.05 C 81.47 82.14 82.55 87.60 82.23 92.84 C 80.76 92.28 78.27 92.07 78.14 90.06 C 77.87 85.05 77.86 80.00 78.13 74.99 Z" />
<path fill="#535e0d" d=" M 112.00 72.31 C 114.22 72.31 116.44 72.31 118.66 72.31 C 118.68 73.46 118.71 74.62 118.73 75.77 C 118.28 75.81 117.38 75.90 116.93 75.94 C 116.62 76.83 116.32 77.72 116.04 78.63 C 114.70 78.66 113.36 78.69 112.02 78.72 C 112.01 76.58 112.01 74.45 112.00 72.31 Z" />
<path fill="#fff" d=" M 82.92 77.05 C 85.12 74.91 88.78 76.05 91.58 75.52 C 90.97 80.62 91.89 85.80 91.00 90.85 C 89.06 93.60 85.09 92.22 82.23 92.84 C 82.55 87.60 81.47 82.14 82.92 77.05 Z" />
<path fill="#535e0d" d=" M 32.24 79.03 C 32.84 79.02 34.02 78.99 34.62 78.98 C 36.06 81.06 30.94 81.20 32.24 79.03 Z" />
<path fill="#535e0d" d=" M 119.00 82.22 C 120.41 82.24 121.83 82.26 123.24 82.28 C 123.25 84.58 123.25 86.88 123.26 89.18 C 121.70 89.23 120.14 89.28 118.58 89.36 C 118.09 89.38 117.10 89.43 116.61 89.45 C 116.53 90.51 116.45 91.58 116.38 92.64 C 114.92 92.67 113.47 92.69 112.02 92.72 C 112.01 90.48 112.00 88.24 111.99 86.01 C 114.33 86.00 116.67 86.00 119.00 85.99 C 119.00 84.74 119.00 83.48 119.00 82.22 Z" />
<path fill="#535e0d" d=" M 50.69 89.39 C 52.10 89.31 53.51 89.23 54.92 89.17 C 54.95 90.06 55.02 91.86 55.06 92.76 C 53.02 92.55 51.16 91.54 50.69 89.39 Z" />
<path fill="#535e0d" d=" M 125.82 92.76 C 126.51 92.73 127.90 92.68 128.59 92.66 C 128.63 94.94 128.67 97.22 128.70 99.51 C 128.96 99.56 129.50 99.66 129.77 99.70 C 129.96 100.59 130.35 102.35 130.54 103.23 C 122.28 103.28 114.02 103.25 105.76 103.25 C 105.76 102.39 105.76 100.68 105.76 99.82 C 112.44 99.76 119.11 99.81 125.79 99.79 C 125.79 97.45 125.80 95.10 125.82 92.76 Z" />
<path fill="#535e0d" d=" M 153.29 99.80 C 153.31 97.44 153.33 95.09 153.36 92.74 C 154.37 92.72 156.38 92.70 157.39 92.68 C 157.55 96.22 157.55 99.76 157.39 103.30 C 149.26 103.21 141.13 103.29 133.00 103.25 C 133.00 102.40 133.01 100.70 133.01 99.85 C 139.77 99.77 146.53 99.80 153.29 99.80 Z" />
<path fill="#f8ca00" d=" M 185.15 120.61 C 187.77 120.61 190.40 120.61 193.03 120.63 C 192.62 121.82 192.21 123.01 191.81 124.20 C 187.47 136.98 183.30 149.82 178.95 162.59 C 178.36 162.60 177.17 162.60 176.58 162.61 C 174.77 162.61 172.96 162.61 171.16 162.61 C 175.80 148.60 180.48 134.61 185.15 120.61 Z" />
<path fill="#f8ca00" d=" M 5.60 124.37 C 10.35 124.36 15.09 124.36 19.84 124.36 C 19.83 125.58 19.82 126.79 19.82 128.01 C 19.81 129.26 19.80 130.51 19.80 131.76 C 18.93 131.78 17.19 131.81 16.32 131.83 C 16.31 138.61 16.30 145.39 16.33 152.17 C 17.20 152.19 18.94 152.23 19.82 152.25 C 19.80 154.69 19.79 157.12 19.78 159.56 C 16.52 159.57 13.27 159.57 10.01 159.61 C 8.54 159.62 7.07 159.63 5.60 159.64 C 5.60 157.15 5.60 154.65 5.61 152.16 C 6.46 152.16 8.15 152.16 9.00 152.16 C 9.00 145.39 9.00 138.62 9.00 131.85 C 7.86 131.84 6.73 131.83 5.60 131.82 C 5.60 129.33 5.60 126.85 5.60 124.37 Z" />
<path fill="#f8ca00" d=" M 22.35 124.37 C 27.93 124.43 33.51 124.20 39.09 124.44 C 42.61 124.49 45.86 126.31 48.15 128.92 C 51.29 134.09 50.66 141.77 45.23 145.16 C 41.73 147.52 37.30 146.90 33.32 147.09 C 33.32 148.78 33.32 150.47 33.33 152.17 C 34.20 152.19 35.94 152.23 36.81 152.25 C 36.80 154.68 36.79 157.12 36.78 159.56 C 33.51 159.57 30.24 159.60 26.97 159.63 C 26.22 159.62 24.74 159.58 23.99 159.57 C 23.63 159.54 22.90 159.48 22.53 159.45 C 22.42 158.48 22.33 157.51 22.27 156.54 C 22.28 155.45 22.30 153.28 22.31 152.20 C 23.54 152.18 24.77 152.16 26.00 152.14 C 26.00 145.39 26.00 138.63 26.00 131.88 C 25.52 131.86 24.57 131.82 24.09 131.80 C 23.68 131.78 22.85 131.75 22.43 131.73 C 22.42 130.49 22.41 129.24 22.39 128.00 C 22.38 126.79 22.36 125.58 22.35 124.37 Z" />
<path fill="#f8ca00" d=" M 59.02 124.91 C 62.66 123.49 66.63 124.30 70.31 125.12 C 72.96 124.04 75.86 124.37 78.65 124.35 C 78.63 125.55 78.62 126.76 78.61 127.97 C 78.58 130.42 78.56 132.86 78.54 135.31 C 76.17 135.31 73.81 135.31 71.45 135.30 L 70.81 134.74 C 67.83 131.15 63.01 130.99 58.99 132.77 C 59.69 134.97 60.77 137.13 63.16 137.80 C 68.49 138.68 74.39 139.74 77.88 144.35 C 79.41 148.27 79.84 153.36 76.48 156.50 C 72.38 160.71 66.02 160.08 60.80 158.81 C 59.54 159.09 58.27 159.35 57.00 159.56 C 55.46 159.70 53.91 159.68 52.37 159.69 C 52.36 155.99 52.36 152.30 52.37 148.60 C 54.72 148.60 57.07 148.60 59.42 148.62 C 61.63 150.45 64.00 152.60 67.09 152.41 C 69.22 152.66 71.81 151.76 72.13 149.36 C 68.91 145.19 63.14 145.72 58.63 144.03 C 57.09 143.24 55.66 142.19 54.45 140.95 C 52.58 138.47 51.98 135.35 52.23 132.29 C 53.10 128.90 55.73 126.08 59.02 124.91 Z" />
<path fill="#f8ca00" d=" M 81.53 124.37 C 86.30 124.35 91.07 124.36 95.83 124.36 C 95.83 125.57 95.82 126.78 95.82 127.99 C 95.81 129.24 95.81 130.50 95.80 131.75 C 94.64 131.77 93.48 131.79 92.32 131.82 C 92.48 137.77 91.92 143.76 92.54 149.69 C 92.74 151.61 95.02 151.84 96.43 152.44 C 98.77 152.03 102.82 152.74 103.40 149.64 C 103.95 143.77 103.43 137.86 103.62 131.97 C 102.44 131.88 101.26 131.79 100.08 131.70 C 100.11 130.48 100.14 129.26 100.16 128.04 C 100.17 126.81 100.19 125.59 100.20 124.36 C 104.94 124.36 109.68 124.35 114.43 124.37 C 114.40 125.56 114.38 126.74 114.36 127.93 C 114.33 129.20 114.30 130.47 114.28 131.74 C 113.46 131.77 111.82 131.82 111.00 131.85 C 110.87 137.93 111.29 144.03 110.84 150.11 C 110.56 154.42 107.13 158.22 102.95 159.15 C 99.23 159.97 95.37 159.58 91.65 159.02 C 88.31 157.23 85.24 154.08 85.11 150.08 C 84.80 144.09 85.10 138.08 84.99 132.08 C 84.31 131.97 82.94 131.76 82.26 131.65 C 81.94 130.45 81.72 129.22 81.58 127.99 C 81.53 126.78 81.52 125.58 81.53 124.37 Z" />
<path fill="#f8ca00" d=" M 117.16 124.36 C 120.72 124.36 124.27 124.37 127.82 124.33 C 128.54 125.42 129.27 126.52 129.97 127.64 C 131.49 130.13 133.01 132.63 134.56 135.11 C 134.92 134.53 135.28 133.95 135.65 133.37 C 137.52 130.35 139.41 127.34 141.33 124.35 C 144.88 124.36 148.44 124.36 151.99 124.36 C 151.99 125.54 152.00 126.73 152.00 127.91 C 152.00 129.19 152.00 130.48 152.01 131.76 C 151.15 131.78 149.43 131.82 148.58 131.84 C 148.56 138.61 148.56 145.39 148.58 152.16 C 149.44 152.18 151.16 152.22 152.02 152.24 C 152.00 154.69 151.99 157.13 151.97 159.58 C 148.72 159.57 145.48 159.57 142.23 159.61 C 140.83 159.62 139.43 159.64 138.03 159.66 C 138.00 157.19 137.98 154.72 137.97 152.24 L 138.87 152.22 C 139.49 152.20 140.73 152.16 141.35 152.15 C 141.42 147.43 141.44 142.72 141.46 138.00 C 139.55 141.07 137.62 144.12 135.70 147.17 C 135.42 147.61 134.87 148.48 134.59 148.91 C 133.72 147.59 132.84 146.27 132.02 144.92 C 130.69 142.65 129.26 140.45 127.84 138.24 C 127.78 142.84 127.79 147.44 127.80 152.04 C 129.14 152.21 130.48 152.38 131.82 152.55 C 131.69 153.47 131.59 154.39 131.51 155.31 C 131.39 156.72 131.28 158.14 131.18 159.56 C 127.94 159.56 124.69 159.57 121.45 159.61 C 120.02 159.62 118.60 159.64 117.17 159.65 C 117.17 157.17 117.16 154.69 117.16 152.22 C 118.31 152.17 119.47 152.12 120.63 152.07 C 120.57 145.33 120.60 138.60 120.60 131.86 C 120.14 131.85 119.22 131.81 118.77 131.80 C 118.37 131.78 117.59 131.76 117.20 131.74 C 117.19 130.51 117.19 129.27 117.18 128.04 C 117.17 126.81 117.17 125.59 117.16 124.36 Z" />
<path fill="#f8ca00" d=" M 160.05 124.32 C 161.24 124.34 162.44 124.36 163.64 124.38 C 163.63 125.68 163.63 126.99 163.63 128.29 C 164.74 127.61 165.84 126.94 166.95 126.26 C 167.64 127.47 168.33 128.69 169.03 129.90 C 168.56 130.12 167.64 130.56 167.17 130.79 C 166.79 130.92 166.03 131.17 165.65 131.30 C 166.70 132.10 167.75 132.90 168.81 133.70 C 168.18 134.74 167.56 135.79 166.94 136.84 C 165.79 136.22 164.65 135.60 163.50 134.98 C 163.54 135.85 163.63 137.60 163.67 138.48 C 162.62 138.81 161.55 139.01 160.46 139.09 C 159.96 137.77 159.72 136.39 159.76 134.96 C 158.72 135.64 157.67 136.32 156.63 137.00 C 156.14 136.29 155.17 134.88 154.68 134.18 C 155.16 133.60 155.64 133.03 156.14 132.47 C 158.45 132.62 157.07 129.33 155.90 131.59 C 155.66 130.51 155.48 129.43 155.35 128.33 C 155.61 127.81 156.13 126.76 156.39 126.23 C 157.59 126.92 158.79 127.61 159.99 128.31 C 160.01 126.98 160.03 125.64 160.05 124.32 Z" />
<path fill="#535e0d" d=" M 178.95 162.59 C 183.30 149.82 187.47 136.98 191.81 124.20 C 193.53 124.23 195.27 124.25 197.00 124.28 L 197.00 125.76 C 192.01 138.96 187.86 152.47 183.42 165.87 C 180.85 165.94 178.29 165.99 175.73 166.05 C 175.94 165.19 176.37 163.47 176.58 162.61 C 177.17 162.60 178.36 162.60 178.95 162.59 Z" />
<path fill="#535e0d" d=" M 19.82 128.01 C 20.46 128.01 21.75 128.01 22.39 128.00 C 22.41 129.24 22.42 130.49 22.43 131.73 C 22.85 131.75 23.68 131.78 24.09 131.80 C 24.01 132.95 23.92 134.11 23.83 135.26 C 23.00 135.29 21.34 135.34 20.51 135.37 C 20.70 141.61 20.10 147.89 20.72 154.12 C 21.11 154.72 21.88 155.93 22.27 156.54 C 22.33 157.51 22.42 158.48 22.53 159.45 C 22.90 159.48 23.63 159.54 23.99 159.57 C 23.99 160.37 23.99 161.96 23.99 162.75 C 19.33 162.74 14.68 162.74 10.03 162.76 C 10.02 161.97 10.01 160.40 10.01 159.61 C 13.27 159.57 16.52 159.57 19.78 159.56 C 19.79 157.12 19.80 154.69 19.82 152.25 C 18.94 152.23 17.20 152.19 16.33 152.17 C 16.30 145.39 16.31 138.61 16.32 131.83 C 17.19 131.81 18.93 131.78 19.80 131.76 C 19.80 130.51 19.81 129.26 19.82 128.01 Z" />
<path fill="#535e0d" d=" M 78.54 135.31 C 78.56 132.86 78.58 130.42 78.61 127.97 C 79.35 127.98 80.84 127.99 81.58 127.99 C 81.72 129.22 81.94 130.45 82.26 131.65 L 82.61 132.94 C 82.69 134.88 82.74 136.83 82.79 138.78 C 80.55 138.77 78.29 138.91 76.07 138.56 C 74.34 137.77 72.93 136.45 71.45 135.30 C 73.81 135.31 76.17 135.31 78.54 135.31 Z" />
<path fill="#535e0d" d=" M 95.82 127.99 C 97.26 128.01 98.71 128.02 100.16 128.04 C 100.14 129.26 100.11 130.48 100.08 131.70 C 100.05 132.56 100.00 134.29 99.97 135.15 C 98.81 135.23 97.64 135.31 96.48 135.39 C 96.50 141.07 96.55 146.76 96.43 152.44 C 95.02 151.84 92.74 151.61 92.54 149.69 C 91.92 143.76 92.48 137.77 92.32 131.82 C 93.48 131.79 94.64 131.77 95.80 131.75 C 95.81 130.50 95.81 129.24 95.82 127.99 Z" />
<path fill="#535e0d" d=" M 114.28 131.74 C 114.30 130.47 114.33 129.20 114.36 127.93 C 115.06 127.96 116.48 128.01 117.18 128.04 C 117.19 129.27 117.19 130.51 117.20 131.74 C 117.59 131.76 118.37 131.78 118.77 131.80 C 118.77 132.63 118.77 134.29 118.77 135.12 C 117.59 135.20 116.42 135.27 115.24 135.35 C 115.17 141.24 115.43 147.13 115.19 153.01 C 115.12 157.61 111.52 161.92 106.93 162.59 C 101.66 163.10 95.42 163.52 91.65 159.02 C 95.37 159.58 99.23 159.97 102.95 159.15 C 107.13 158.22 110.56 154.42 110.84 150.11 C 111.29 144.03 110.87 137.93 111.00 131.85 C 111.82 131.82 113.46 131.77 114.28 131.74 Z" />
<path fill="#535e0d" d=" M 129.97 127.64 C 133.06 128.03 134.13 131.13 135.65 133.37 C 135.28 133.95 134.92 134.53 134.56 135.11 C 133.01 132.63 131.49 130.13 129.97 127.64 Z" />
<path fill="#535e0d" d=" M 152.00 127.91 C 152.84 128.02 154.51 128.23 155.35 128.33 C 155.48 129.43 155.66 130.51 155.90 131.59 L 156.14 132.47 C 155.64 133.03 155.16 133.60 154.68 134.18 C 154.29 134.61 153.52 135.47 153.13 135.90 C 152.86 142.50 153.06 149.10 153.00 155.70 C 153.81 155.72 155.42 155.77 156.23 155.79 C 156.25 158.09 156.26 160.40 156.28 162.71 C 151.60 162.76 146.93 162.76 142.25 162.74 C 142.25 161.96 142.24 160.39 142.23 159.61 C 145.48 159.57 148.72 159.57 151.97 159.58 C 151.99 157.13 152.00 154.69 152.02 152.24 C 151.16 152.22 149.44 152.18 148.58 152.16 C 148.56 145.39 148.56 138.61 148.58 131.84 C 149.43 131.82 151.15 131.78 152.01 131.76 C 152.00 130.48 152.00 129.19 152.00 127.91 Z" />
<path fill="#535e0d" d=" M 48.15 128.92 C 49.53 130.02 50.89 131.14 52.23 132.29 C 51.98 135.35 52.58 138.47 54.45 140.95 C 53.63 143.65 52.55 146.48 50.13 148.14 C 46.56 150.96 41.76 150.47 37.50 150.57 C 37.50 152.26 37.51 153.96 37.51 155.66 C 38.68 155.70 39.85 155.76 41.02 155.81 C 41.00 158.12 40.99 160.44 40.98 162.76 C 36.33 162.74 31.69 162.74 27.05 162.76 C 27.03 161.98 26.99 160.41 26.97 159.63 C 30.24 159.60 33.51 159.57 36.78 159.56 C 36.79 157.12 36.80 154.68 36.81 152.25 C 35.94 152.23 34.20 152.19 33.33 152.17 C 33.32 150.47 33.32 148.78 33.32 147.09 C 37.30 146.90 41.73 147.52 45.23 145.16 C 50.66 141.77 51.29 134.09 48.15 128.92 Z" />
<path fill="#535e0d" d=" M 167.17 130.79 C 168.74 130.59 170.32 130.41 171.89 130.24 C 172.18 131.23 172.49 132.21 172.69 133.22 C 172.05 133.73 170.79 134.75 170.15 135.26 C 171.21 135.88 172.27 136.50 173.32 137.13 C 172.58 138.03 172.01 139.13 171.06 139.84 C 170.01 139.49 168.98 139.10 167.97 138.68 C 167.97 139.63 167.97 141.52 167.96 142.47 C 165.67 142.47 163.49 142.16 164.03 139.22 C 162.78 139.50 161.52 139.59 160.27 139.50 L 160.46 139.09 C 161.55 139.01 162.62 138.81 163.67 138.48 C 163.63 137.60 163.54 135.85 163.50 134.98 C 164.65 135.60 165.79 136.22 166.94 136.84 C 167.56 135.79 168.18 134.74 168.81 133.70 C 167.75 132.90 166.70 132.10 165.65 131.30 C 166.03 131.17 166.79 130.92 167.17 130.79 Z" />
<path fill="#535e0d" d=" M 33.32 131.74 C 37.07 131.57 41.42 131.34 43.40 135.21 C 41.43 135.24 39.46 135.26 37.49 135.29 C 37.50 136.68 37.52 138.07 37.54 139.46 C 36.48 139.54 34.37 139.70 33.31 139.78 C 33.31 137.10 33.31 134.42 33.32 131.74 Z" />
<path fill="#535e0d" d=" M 58.99 132.77 C 63.01 130.99 67.83 131.15 70.81 134.74 C 67.91 134.76 64.84 135.11 63.16 137.80 C 60.77 137.13 59.69 134.97 58.99 132.77 Z" />
<path fill="#fff" d=" M 37.49 135.29 C 39.46 135.26 41.43 135.24 43.40 135.21 C 42.67 138.08 40.44 139.74 37.54 140.02 L 37.54 139.46 C 37.52 138.07 37.50 136.68 37.49 135.29 Z" />
<path fill="#535e0d" d=" M 141.46 138.00 C 141.44 142.72 141.42 147.43 141.35 152.15 C 140.73 152.16 139.49 152.20 138.87 152.22 C 137.82 150.53 136.76 148.85 135.70 147.17 C 137.62 144.12 139.55 141.07 141.46 138.00 Z" />
<path fill="#535e0d" d=" M 127.84 138.24 C 129.26 140.45 130.69 142.65 132.02 144.92 C 132.57 147.44 132.18 150.03 131.82 152.55 C 130.48 152.38 129.14 152.21 127.80 152.04 C 127.79 147.44 127.78 142.84 127.84 138.24 Z" />
<path fill="#535e0d" d=" M 58.63 144.03 C 63.14 145.72 68.91 145.19 72.13 149.36 C 67.24 148.95 62.09 147.77 58.63 144.03 Z" />
<path fill="#535e0d" d=" M 77.88 144.35 C 80.44 145.82 82.66 148.08 83.21 151.09 C 84.55 155.64 81.63 160.56 77.33 162.22 C 73.40 164.02 69.07 162.96 65.03 162.26 C 62.38 162.64 59.71 162.79 57.04 162.86 C 57.03 162.03 57.01 160.38 57.00 159.56 C 58.27 159.35 59.54 159.09 60.80 158.81 C 66.02 160.08 72.38 160.71 76.48 156.50 C 79.84 153.36 79.41 148.27 77.88 144.35 Z" />
<path fill="#535e0d" d=" M 131.51 155.31 C 132.86 155.57 134.21 155.84 135.56 156.10 C 135.53 158.31 135.51 160.52 135.49 162.73 C 130.82 162.76 126.15 162.76 121.48 162.73 C 121.47 161.95 121.46 160.39 121.45 159.61 C 124.69 159.57 127.94 159.56 131.18 159.56 C 131.28 158.14 131.39 156.72 131.51 155.31 Z" />
<path fill="#ffffff" d=" M 0.00 180.68 C 3.54 181.40 6.54 183.51 9.89 184.72 C 14.44 185.66 17.55 180.66 22.04 181.22 C 25.25 181.68 27.82 183.92 30.92 184.71 C 35.06 185.41 37.92 181.29 41.93 181.15 C 45.74 180.81 48.41 184.25 52.01 184.77 C 56.15 185.35 58.96 181.11 63.01 181.17 C 66.32 181.35 68.97 183.63 72.04 184.61 C 76.53 185.82 79.61 180.97 83.99 181.14 C 88.07 181.05 90.89 185.28 95.05 184.78 C 98.30 184.43 100.65 181.56 103.90 181.19 C 107.36 181.02 110.33 183.09 113.15 184.80 C 117.35 185.33 120.50 182.20 124.32 181.25 C 128.34 180.40 131.30 183.92 134.96 184.74 C 138.56 185.21 141.42 182.39 144.75 181.58 C 145.54 182.03 145.65 182.49 145.07 182.98 C 142.26 184.92 139.14 186.33 135.97 187.57 C 132.98 186.23 130.14 184.56 127.04 183.47 C 122.61 182.62 118.95 185.98 115.06 187.53 C 111.38 186.11 107.98 183.60 103.99 183.27 C 100.55 184.25 97.70 186.85 94.08 187.28 C 90.83 186.58 88.24 184.29 85.08 183.38 C 80.95 182.59 78.03 186.72 74.03 186.78 C 69.63 187.22 66.39 182.72 61.99 183.37 C 58.82 184.38 55.99 186.25 52.95 187.58 C 49.54 186.39 46.51 184.23 43.01 183.32 C 38.94 183.16 35.74 186.31 32.02 187.55 C 28.35 186.21 24.99 183.80 21.08 183.26 C 17.56 184.18 14.49 186.35 11.05 187.57 C 7.39 185.90 3.74 184.20 0.00 182.69 L 0.00 180.68 Z" />
<path fill="#ffffff" d=" M 158.02 184.57 C 161.36 181.64 166.53 179.68 170.50 182.61 C 172.95 184.55 175.96 185.12 179.01 184.56 C 181.85 182.03 188.20 178.81 190.39 183.52 C 188.31 183.47 186.22 183.40 184.14 183.49 C 181.92 185.11 179.46 186.32 177.00 187.50 C 172.05 186.86 168.37 182.05 163.11 183.53 C 158.75 187.96 151.06 187.77 147.26 182.73 C 147.40 182.50 147.69 182.03 147.83 181.80 C 150.01 181.53 151.31 183.65 153.11 184.50 C 154.71 184.89 156.38 184.61 158.02 184.57 Z" />
<path fill="#ffffff" d=" M 110.54 197.48 C 111.38 196.03 112.22 194.57 113.07 193.13 C 113.90 194.57 114.74 196.01 115.58 197.46 C 117.28 197.78 118.98 198.10 120.69 198.42 C 119.50 199.63 118.32 200.84 117.14 202.05 C 117.35 203.70 117.56 205.34 117.78 206.99 C 116.20 206.29 114.63 205.59 113.06 204.89 C 111.49 205.59 109.92 206.29 108.35 206.99 C 108.56 205.35 108.78 203.72 109.00 202.08 C 107.82 200.86 106.65 199.63 105.48 198.40 C 107.16 198.09 108.85 197.78 110.54 197.48 Z" />
<path fill="#ffffff" d=" M 165.70 197.42 C 167.01 196.30 167.65 194.57 168.59 193.15 C 169.43 194.60 170.27 196.05 171.12 197.50 C 172.81 197.80 174.50 198.10 176.19 198.41 C 175.00 199.62 173.82 200.84 172.64 202.05 C 172.84 203.70 173.05 205.34 173.27 206.99 C 171.72 206.29 170.17 205.60 168.63 204.90 C 167.03 205.58 165.44 206.28 163.84 206.98 C 164.06 205.33 164.27 203.69 164.49 202.05 C 163.32 200.85 162.14 199.66 160.96 198.47 C 162.54 198.14 164.15 197.90 165.70 197.42 Z" />
<path fill="#ffffff" d=" M 29.76 193.16 C 30.65 194.60 31.52 196.04 32.39 197.49 C 34.07 197.79 35.75 198.09 37.43 198.41 C 36.26 199.63 35.08 200.84 33.91 202.06 C 34.12 203.70 34.33 205.34 34.54 206.99 C 32.97 206.29 31.41 205.59 29.85 204.89 C 28.27 205.59 26.69 206.28 25.11 206.99 C 25.32 205.34 25.54 203.70 25.76 202.07 C 24.58 200.85 23.39 199.63 22.20 198.41 C 23.92 198.09 25.63 197.78 27.34 197.46 C 28.15 196.03 28.96 194.59 29.76 193.16 Z" />
<path fill="#ffffff" d=" M 54.71 197.42 C 56.04 196.31 56.66 194.56 57.63 193.15 C 58.45 194.60 59.29 196.06 60.13 197.50 C 61.82 197.80 63.51 198.10 65.21 198.40 C 64.02 199.62 62.83 200.83 61.65 202.05 C 61.86 203.69 62.07 205.33 62.29 206.97 C 60.68 206.27 59.07 205.58 57.46 204.90 C 55.94 205.60 54.40 206.30 52.87 206.99 C 53.08 205.34 53.29 203.68 53.50 202.03 C 52.33 200.84 51.15 199.65 49.97 198.47 C 51.56 198.14 53.16 197.90 54.71 197.42 Z" />
<path fill="#ffffff" d=" M 82.77 197.49 C 83.62 196.05 84.46 194.61 85.30 193.17 C 86.13 194.55 86.88 195.99 87.87 197.27 C 89.48 197.91 91.22 198.09 92.90 198.47 C 91.71 199.70 90.52 200.93 89.35 202.18 C 89.59 203.76 89.84 205.34 90.08 206.93 C 88.40 206.41 86.85 205.22 85.06 205.14 C 83.52 205.61 82.07 206.31 80.59 206.93 C 80.81 205.30 81.04 203.68 81.26 202.06 C 80.07 200.84 78.88 199.63 77.70 198.41 C 79.39 198.10 81.08 197.79 82.77 197.49 Z" />
<path fill="#ffffff" d=" M 138.31 197.46 C 139.14 196.01 139.97 194.57 140.81 193.12 C 141.65 194.57 142.50 196.03 143.35 197.49 C 145.04 197.79 146.73 198.10 148.42 198.41 C 147.24 199.63 146.06 200.85 144.88 202.07 C 145.10 203.71 145.31 205.35 145.53 206.99 C 143.97 206.29 142.41 205.60 140.86 204.90 C 139.27 205.59 137.67 206.28 136.08 206.98 C 136.30 205.35 136.53 203.73 136.76 202.10 C 135.57 200.87 134.39 199.64 133.20 198.41 C 134.90 198.09 136.60 197.78 138.31 197.46 Z" />
</svg>